<svg class="logo" xmlns="http://www.w3.org/2000/svg" width="258" height="80" viewBox="0 0 258 80">
  <path fill="#FFFFFF" d="M257.891 18.794h-23.298v12.663h23.298V48.14h-23.298v13.066h23.298v16.683h-42.898V2.111h42.898v16.683zM205.698 2.112v16.682H189.6V77.89H170V18.794h-16.098V2.112h51.796zm-85.795 0h13.285l28.698 75.777h-20.9l-5.782-16.683h-15.3V46.23h10.11l-10.11-29.173V2.112zm-55.543 0h19.6v59.094h26.491v16.683H64.36V2.112zm-38.362 16.08c-1.6 1.205-2.399 2.78-2.399 4.723 0 1.341.4 2.447 1.199 3.316.8.872 1.85 1.626 3.15 2.263 1.301.636 2.766 1.188 4.4 1.658 1.633.468 3.25.97 4.85 1.507 6.4 2.145 11.083 5.009 14.05 8.592 2.965 3.585 4.449 8.259 4.449 14.02 0 3.887-.65 7.405-1.95 10.553-1.3 3.15-3.2 5.846-5.699 8.09-2.5 2.246-5.567 3.987-9.2 5.227-3.635 1.238-7.75 1.858-12.35 1.858C16.964 80 8.132 77.153 0 71.457l8.4-15.88c2.933 2.613 5.833 4.558 8.699 5.83 2.865 1.273 5.7 1.91 8.5 1.91 3.199 0 5.582-.737 7.149-2.212 1.566-1.472 2.35-3.149 2.35-5.025 0-1.138-.2-2.126-.6-2.965-.4-.837-1.067-1.608-2-2.312-.933-.702-2.15-1.356-3.65-1.958a119.17 119.17 0 0 0-5.45-2.011 107.865 107.865 0 0 1-7.449-2.663c-2.435-.97-4.6-2.261-6.5-3.87-1.9-1.607-3.433-3.633-4.598-6.08-1.168-2.445-1.75-5.543-1.75-9.296 0-3.751.615-7.152 1.848-10.2 1.234-3.05 2.966-5.662 5.2-7.84 2.233-2.176 4.966-3.87 8.2-5.076C21.582.603 25.2 0 29.2 0c3.73 0 7.63.52 11.698 1.56a51.544 51.544 0 0 1 11.7 4.573l-7.8 15.376c-2.135-1.742-4.268-3.03-6.4-3.869-2.135-.838-4.2-1.256-6.2-1.256-2.534 0-4.599.603-6.2 1.809z"></path>
</svg>
